<svg xmlns="http://www.w3.org/2000/svg" width="27.537" height="29.377" viewBox="0 0 27.537 29.377">
  <g id="box" transform="translate(-16.032 0)">
    <g id="Grupo_825" data-name="Grupo 825" transform="translate(16.032 -0.001)">
      <g id="Grupo_824" data-name="Grupo 824" transform="translate(0 0)">
        <path id="Caminho_166" data-name="Caminho 166" d="M43.326,6.481,29.988.042a.43.43,0,0,0-.374,0L16.275,6.481a.43.43,0,0,0-.243.388V22.507a.43.43,0,0,0,.243.388l13.338,6.439a.43.43,0,0,0,.374,0l13.338-6.439a.43.43,0,0,0,.243-.388V6.869A.43.43,0,0,0,43.326,6.481ZM29.8.908,42.149,6.869,38.569,8.6a.427.427,0,0,0-.073-.046L26.232,2.63ZM25.26,3.117,37.591,9.07l-2.525,1.219L22.74,4.339ZM37.879,9.886v4.507L35.52,15.531V11.025Zm4.829,12.351L30.231,28.26V13.578l2.976-1.437a.43.43,0,1,0-.374-.775L29.8,12.83l-1.193-.576a.43.43,0,1,0-.374.775l1.137.549V28.26L16.893,22.237V7.555l9.5,4.587a.43.43,0,0,0,.374-.775l-9.316-4.5,4.275-2.064,12.927,6.24.006.008v5.164a.43.43,0,0,0,.617.388L38.5,15.05a.43.43,0,0,0,.243-.388V9.471l3.969-1.916Z" transform="translate(-16.032 0.001)" fill="#51a4ff"/>
      </g>
    </g>
    <g id="Grupo_827" data-name="Grupo 827" transform="translate(17.869 19.58)">
      <g id="Grupo_826" data-name="Grupo 826" transform="translate(0)">
        <path id="Caminho_167" data-name="Caminho 167" d="M50.623,342.249l-1.957-.945a.43.43,0,0,0-.374.775l1.957.945a.43.43,0,0,0,.374-.775Z" transform="translate(-48.048 -341.261)" fill="#51a4ff"/>
      </g>
    </g>
    <g id="Grupo_829" data-name="Grupo 829" transform="translate(17.872 17.539)">
      <g id="Grupo_828" data-name="Grupo 828">
        <path id="Caminho_168" data-name="Caminho 168" d="M52.47,307.547l-3.756-1.813a.43.43,0,1,0-.374.775l3.756,1.813a.43.43,0,0,0,.374-.775Z" transform="translate(-48.096 -305.69)" fill="#51a4ff"/>
      </g>
    </g>
  </g>
</svg>
