<svg xmlns="http://www.w3.org/2000/svg" width="23.645" height="23.645" viewBox="0 0 23.645 23.645">
  <g id="cartao-de-credito" transform="translate(-4.75 -4.75)">
    <path id="Caminho_156" data-name="Caminho 156" d="M26.848,4.75H7.885A1.548,1.548,0,0,0,6.338,6.3V12.91H6.3A1.548,1.548,0,0,0,4.75,14.456V26.848A1.548,1.548,0,0,0,6.3,28.395H25.261a1.548,1.548,0,0,0,1.546-1.546V20.236h.041a1.548,1.548,0,0,0,1.546-1.546V6.3A1.548,1.548,0,0,0,26.848,4.75ZM6.3,13.608H25.261a.849.849,0,0,1,.848.848v1.491H5.448V14.456a.849.849,0,0,1,.848-.848Zm-.848,3.037h20.66v1.7H5.448ZM25.261,27.7H6.3a.849.849,0,0,1-.848-.848V19.039h20.66v7.809a.849.849,0,0,1-.848.848ZM27.7,18.69a.849.849,0,0,1-.848.848h-.041V14.456a1.548,1.548,0,0,0-1.546-1.546H7.037V6.3a.849.849,0,0,1,.848-.848H26.848A.849.849,0,0,1,27.7,6.3Z" fill="#51a4ff"/>
    <path id="Caminho_157" data-name="Caminho 157" d="M29.312,10.75h-1.8a.349.349,0,1,0,0,.7h1.8a.349.349,0,1,0,0-.7Z" transform="translate(-17.944 -4.803)" fill="#51a4ff"/>
    <path id="Caminho_158" data-name="Caminho 158" d="M88.188,19.971H82.477a.349.349,0,0,0-.349.349v2.394a.349.349,0,0,0,.349.349h5.711a.349.349,0,0,0,.349-.349V20.32A.349.349,0,0,0,88.188,19.971Zm-.349,2.394H82.826v-1.7h5.013Z" transform="translate(-61.938 -12.184)" fill="#51a4ff"/>
    <path id="Caminho_159" data-name="Caminho 159" d="M71.674,97.917a1.546,1.546,0,1,0,1.546,1.546,1.546,1.546,0,0,0-1.546-1.546Zm0,2.394a.848.848,0,1,1,.848-.848A.848.848,0,0,1,71.674,100.311Z" transform="translate(-52.333 -74.577)" fill="#51a4ff"/>
    <path id="Caminho_160" data-name="Caminho 160" d="M91.049,97.917A1.546,1.546,0,1,0,92.6,99.463,1.546,1.546,0,0,0,91.049,97.917Zm0,2.394a.848.848,0,1,1,.848-.848A.848.848,0,0,1,91.049,100.311Z" transform="translate(-67.842 -74.577)" fill="#51a4ff"/>
    <path id="Caminho_161" data-name="Caminho 161" d="M22.353,103.917H16.766a.349.349,0,0,0,0,.7h5.587a.349.349,0,0,0,0-.7Z" transform="translate(-9.339 -79.38)" fill="#51a4ff"/>
  </g>
</svg>
