<svg xmlns="http://www.w3.org/2000/svg" width="32.458" height="23.726" viewBox="0 0 32.458 23.726">
  <g id="delivery-truck" transform="translate(0 -68.867)">
    <g id="Grupo_817" data-name="Grupo 817" transform="translate(0 68.867)">
      <g id="Grupo_816" data-name="Grupo 816" transform="translate(0 0)">
        <path id="Caminho_162" data-name="Caminho 162" d="M26.277,76.453H24.233l.616-7.069c0-.013,0-.025,0-.038s0,0,0,0h0a.475.475,0,0,0-.287-.436l0,0-.033-.012-.012,0-.027-.007-.019,0-.025,0-.023,0H14.645a.475.475,0,0,0,0,.951h9.212l-.946,10.864v0l-.239,2.741H6.15l.276-2.853H9.572a.475.475,0,0,0,0-.951H6.519L7.1,73.6h5.007a.475.475,0,0,0,0-.951H7.195l.274-2.831h5.274a.475.475,0,0,0,0-.951H7.037a.476.476,0,0,0-.464.375v0c0,.012,0,.024-.006.036s0,.008,0,.011v0l-.325,3.353H.475a.475.475,0,0,0,0,.951H6.147l-.583,6.022h-1.7a.475.475,0,0,0,0,.951h1.6l-.318,3.279h0l-.491,5.07v0c0,.007,0,.013,0,.02s0,.017,0,.026h0c0,.012,0,.024,0,.036s0,.008,0,.012,0,.024.006.036,0,.007,0,.011,0,.018.007.027,0,.013,0,.019l0,.005a.475.475,0,0,0,.113.186l0,0,.016.014a.472.472,0,0,0,.11.076l.025.012.008,0,.036.013H5l.043.011h.006l.042.006h0l.046,0H7.253a3.619,3.619,0,0,0,7.176,0h7.626a3.619,3.619,0,0,0,7.176,0h2.118l.047,0H31.4l.037-.006.015,0,.028-.007.018-.006.023-.009.019-.008.021-.01.019-.01.019-.012.018-.012.019-.014.016-.012.019-.017.013-.012.019-.021.01-.012.02-.026.007-.009c.008-.012.015-.024.022-.036v0c.007-.013.014-.027.02-.041l0-.012c0-.01.008-.02.011-.03s0-.013.005-.02,0-.016.006-.024,0-.015,0-.022,0-.013,0-.019c.02-.162.392-3.149.559-5.08v-.006c.048-.557.079-1.026.079-1.313A6.188,6.188,0,0,0,26.277,76.453Zm-2.126.951H26.1l-.248,2.853H23.9ZM10.841,91.642a2.669,2.669,0,1,1,2.669-2.669A2.672,2.672,0,0,1,10.841,91.642Zm14.8,0a2.669,2.669,0,1,1,2.669-2.669A2.672,2.672,0,0,1,25.643,91.642ZM30.928,88.5h-1.7a3.619,3.619,0,0,0-7.176,0H14.429a3.619,3.619,0,0,0-7.176,0H5.659l.4-4.121h17.05l.047,0h.009l.037-.006.016,0,.028-.007.019-.006.024-.009.02-.009.021-.01.019-.011.019-.012.018-.012.018-.014.016-.014.018-.016.014-.014.017-.018.012-.015.015-.02.011-.016.013-.022.009-.017.011-.023.008-.019.008-.023.007-.021.006-.022c0-.008,0-.015.005-.023s0-.015,0-.023,0-.016,0-.024v0l.238-2.735h2.457a3.406,3.406,0,0,1,2.809,1.554,3.9,3.9,0,0,0,2.3,1.575C31.252,85.8,31.028,87.675,30.928,88.5Zm.543-5.115A3.111,3.111,0,0,1,29.8,82.137a4.465,4.465,0,0,0-3-1.852l.246-2.824a5.238,5.238,0,0,1,4.462,5.173C31.507,82.812,31.494,83.071,31.471,83.382Z" transform="translate(0 -68.867)" fill="#51a4ff"/>
      </g>
    </g>
    <g id="Grupo_819" data-name="Grupo 819" transform="translate(9.098 87.23)">
      <g id="Grupo_818" data-name="Grupo 818" transform="translate(0 0)">
        <path id="Caminho_163" data-name="Caminho 163" d="M145.251,358.524a1.743,1.743,0,1,0,1.743,1.743A1.745,1.745,0,0,0,145.251,358.524Zm0,2.536a.792.792,0,1,1,.792-.792A.793.793,0,0,1,145.251,361.06Z" transform="translate(-143.508 -358.524)" fill="#51a4ff"/>
      </g>
    </g>
    <g id="Grupo_821" data-name="Grupo 821" transform="translate(23.9 87.23)">
      <g id="Grupo_820" data-name="Grupo 820" transform="translate(0 0)">
        <path id="Caminho_164" data-name="Caminho 164" d="M378.739,358.524a1.743,1.743,0,1,0,1.743,1.743A1.745,1.745,0,0,0,378.739,358.524Zm0,2.536a.792.792,0,1,1,.792-.792A.793.793,0,0,1,378.739,361.06Z" transform="translate(-376.996 -358.524)" fill="#51a4ff"/>
      </g>
    </g>
    <g id="Grupo_823" data-name="Grupo 823" transform="translate(1.701 76.453)">
      <g id="Grupo_822" data-name="Grupo 822">
        <path id="Caminho_165" data-name="Caminho 165" d="M29.634,188.527H27.309a.475.475,0,1,0,0,.951h2.324a.475.475,0,1,0,0-.951Z" transform="translate(-26.834 -188.527)" fill="#51a4ff"/>
      </g>
    </g>
  </g>
</svg>
